<mxfile host="app.diagrams.net" modified="2020-07-27T07:06:19.228Z" agent="5.0 (Macintosh; Intel Mac OS X 10_15_5) AppleWebKit/537.36 (KHTML, like Gecko) Chrome/84.0.4147.89 Safari/537.36" etag="Pffu-sF1i4rhAJajzxAZ" version="13.5.3" type="github">
  <diagram id="CG4_eNHO-YGj5-Qip7Wi" name="第 1 页">
    <mxGraphModel dx="944" dy="1711" grid="1" gridSize="10" guides="1" tooltips="1" connect="1" arrows="1" fold="1" page="1" pageScale="1" pageWidth="827" pageHeight="1169" math="0" shadow="0">
      <root>
        <mxCell id="0" />
        <mxCell id="1" parent="0" />
        <mxCell id="4YPogAI1SWp4Oa0HVR4m-1" style="edgeStyle=orthogonalEdgeStyle;rounded=0;orthogonalLoop=1;jettySize=auto;html=1;entryX=0.667;entryY=0;entryDx=0;entryDy=0;entryPerimeter=0;" edge="1" parent="1" source="4YPogAI1SWp4Oa0HVR4m-3" target="4YPogAI1SWp4Oa0HVR4m-4">
          <mxGeometry relative="1" as="geometry">
            <Array as="points">
              <mxPoint x="355" y="60" />
              <mxPoint x="280" y="60" />
            </Array>
          </mxGeometry>
        </mxCell>
        <mxCell id="4YPogAI1SWp4Oa0HVR4m-2" style="edgeStyle=orthogonalEdgeStyle;rounded=0;orthogonalLoop=1;jettySize=auto;html=1;entryX=0.5;entryY=0;entryDx=0;entryDy=0;" edge="1" parent="1" source="4YPogAI1SWp4Oa0HVR4m-3" target="4YPogAI1SWp4Oa0HVR4m-10">
          <mxGeometry relative="1" as="geometry">
            <Array as="points">
              <mxPoint x="355" y="60" />
              <mxPoint x="463" y="60" />
            </Array>
            <mxPoint x="469.93000000000006" y="120" as="targetPoint" />
          </mxGeometry>
        </mxCell>
        <mxCell id="4YPogAI1SWp4Oa0HVR4m-3" value="灰度" style="rhombus;whiteSpace=wrap;html=1;" vertex="1" parent="1">
          <mxGeometry x="310" y="-10" width="90" height="40" as="geometry" />
        </mxCell>
        <mxCell id="4YPogAI1SWp4Oa0HVR4m-4" value="关闭弹窗" style="rounded=1;whiteSpace=wrap;html=1;" vertex="1" parent="1">
          <mxGeometry x="220" y="80" width="90" height="30" as="geometry" />
        </mxCell>
        <mxCell id="4YPogAI1SWp4Oa0HVR4m-8" style="edgeStyle=orthogonalEdgeStyle;rounded=0;orthogonalLoop=1;jettySize=auto;html=1;exitX=0;exitY=0.5;exitDx=0;exitDy=0;entryX=0.5;entryY=0;entryDx=0;entryDy=0;" edge="1" parent="1" source="4YPogAI1SWp4Oa0HVR4m-10" target="4YPogAI1SWp4Oa0HVR4m-14">
          <mxGeometry relative="1" as="geometry" />
        </mxCell>
        <mxCell id="4YPogAI1SWp4Oa0HVR4m-9" style="edgeStyle=orthogonalEdgeStyle;rounded=0;orthogonalLoop=1;jettySize=auto;html=1;exitX=1;exitY=0.5;exitDx=0;exitDy=0;" edge="1" parent="1" source="4YPogAI1SWp4Oa0HVR4m-10" target="4YPogAI1SWp4Oa0HVR4m-17">
          <mxGeometry relative="1" as="geometry" />
        </mxCell>
        <mxCell id="4YPogAI1SWp4Oa0HVR4m-10" value="query.event" style="rhombus;whiteSpace=wrap;html=1;" vertex="1" parent="1">
          <mxGeometry x="397.5" y="140" width="130" height="40" as="geometry" />
        </mxCell>
        <mxCell id="4YPogAI1SWp4Oa0HVR4m-12" style="edgeStyle=orthogonalEdgeStyle;rounded=0;orthogonalLoop=1;jettySize=auto;html=1;entryX=0.5;entryY=0;entryDx=0;entryDy=0;" edge="1" parent="1" source="4YPogAI1SWp4Oa0HVR4m-14" target="4YPogAI1SWp4Oa0HVR4m-29">
          <mxGeometry relative="1" as="geometry" />
        </mxCell>
        <mxCell id="4YPogAI1SWp4Oa0HVR4m-13" style="edgeStyle=orthogonalEdgeStyle;rounded=0;orthogonalLoop=1;jettySize=auto;html=1;entryX=0.5;entryY=0;entryDx=0;entryDy=0;" edge="1" parent="1" source="4YPogAI1SWp4Oa0HVR4m-14" target="4YPogAI1SWp4Oa0HVR4m-30">
          <mxGeometry relative="1" as="geometry" />
        </mxCell>
        <mxCell id="4YPogAI1SWp4Oa0HVR4m-14" value="query.ticketFaceId" style="rhombus;whiteSpace=wrap;html=1;" vertex="1" parent="1">
          <mxGeometry x="267.5" y="225" width="130" height="40" as="geometry" />
        </mxCell>
        <mxCell id="4YPogAI1SWp4Oa0HVR4m-15" style="edgeStyle=orthogonalEdgeStyle;rounded=0;orthogonalLoop=1;jettySize=auto;html=1;entryX=0.5;entryY=0;entryDx=0;entryDy=0;" edge="1" parent="1" source="4YPogAI1SWp4Oa0HVR4m-17" target="4YPogAI1SWp4Oa0HVR4m-21">
          <mxGeometry relative="1" as="geometry" />
        </mxCell>
        <mxCell id="4YPogAI1SWp4Oa0HVR4m-16" style="edgeStyle=orthogonalEdgeStyle;rounded=0;orthogonalLoop=1;jettySize=auto;html=1;entryX=0.5;entryY=0;entryDx=0;entryDy=0;" edge="1" parent="1" source="4YPogAI1SWp4Oa0HVR4m-17" target="4YPogAI1SWp4Oa0HVR4m-20">
          <mxGeometry relative="1" as="geometry" />
        </mxCell>
        <mxCell id="4YPogAI1SWp4Oa0HVR4m-17" value="query.&amp;nbsp;ticketFaceId" style="rhombus;whiteSpace=wrap;html=1;" vertex="1" parent="1">
          <mxGeometry x="527.5" y="225" width="130" height="40" as="geometry" />
        </mxCell>
        <mxCell id="4YPogAI1SWp4Oa0HVR4m-18" value="判断URL" style="text;html=1;strokeColor=none;fillColor=none;align=center;verticalAlign=middle;whiteSpace=wrap;rounded=0;" vertex="1" parent="1">
          <mxGeometry x="422.5" y="180" width="80" height="20" as="geometry" />
        </mxCell>
        <mxCell id="4YPogAI1SWp4Oa0HVR4m-20" value="关闭弹窗" style="rounded=1;whiteSpace=wrap;html=1;" vertex="1" parent="1">
          <mxGeometry x="637.5" y="295" width="80" height="30" as="geometry" />
        </mxCell>
        <mxCell id="4YPogAI1SWp4Oa0HVR4m-21" value="开启弹窗" style="rounded=1;whiteSpace=wrap;html=1;" vertex="1" parent="1">
          <mxGeometry x="467.5" y="295" width="80" height="30" as="geometry" />
        </mxCell>
        <mxCell id="4YPogAI1SWp4Oa0HVR4m-22" value="是" style="text;html=1;strokeColor=none;fillColor=none;align=center;verticalAlign=middle;whiteSpace=wrap;rounded=0;" vertex="1" parent="1">
          <mxGeometry x="432.5" y="60" width="40" height="20" as="geometry" />
        </mxCell>
        <mxCell id="4YPogAI1SWp4Oa0HVR4m-23" value="从【票面编辑列表】进入" style="text;html=1;strokeColor=none;fillColor=none;align=center;verticalAlign=middle;whiteSpace=wrap;rounded=0;" vertex="1" parent="1">
          <mxGeometry x="212.5" y="160" width="110" height="20" as="geometry" />
        </mxCell>
        <mxCell id="4YPogAI1SWp4Oa0HVR4m-26" value="否" style="text;html=1;strokeColor=none;fillColor=none;align=center;verticalAlign=middle;whiteSpace=wrap;rounded=0;" vertex="1" parent="1">
          <mxGeometry x="270" y="60" width="40" height="20" as="geometry" />
        </mxCell>
        <mxCell id="4YPogAI1SWp4Oa0HVR4m-27" value="新建" style="text;html=1;strokeColor=none;fillColor=none;align=center;verticalAlign=middle;whiteSpace=wrap;rounded=0;" vertex="1" parent="1">
          <mxGeometry x="490" y="265" width="35" height="20" as="geometry" />
        </mxCell>
        <mxCell id="4YPogAI1SWp4Oa0HVR4m-28" value="编辑" style="text;html=1;strokeColor=none;fillColor=none;align=center;verticalAlign=middle;whiteSpace=wrap;rounded=0;" vertex="1" parent="1">
          <mxGeometry x="660" y="265" width="35" height="20" as="geometry" />
        </mxCell>
        <mxCell id="4YPogAI1SWp4Oa0HVR4m-29" value="开启弹窗" style="rounded=1;whiteSpace=wrap;html=1;" vertex="1" parent="1">
          <mxGeometry x="227.5" y="295" width="80" height="30" as="geometry" />
        </mxCell>
        <mxCell id="4YPogAI1SWp4Oa0HVR4m-30" value="关闭弹窗" style="rounded=1;whiteSpace=wrap;html=1;" vertex="1" parent="1">
          <mxGeometry x="352.5" y="295" width="80" height="30" as="geometry" />
        </mxCell>
        <mxCell id="4YPogAI1SWp4Oa0HVR4m-31" value="新建" style="text;html=1;strokeColor=none;fillColor=none;align=center;verticalAlign=middle;whiteSpace=wrap;rounded=0;" vertex="1" parent="1">
          <mxGeometry x="250" y="265" width="35" height="20" as="geometry" />
        </mxCell>
        <mxCell id="4YPogAI1SWp4Oa0HVR4m-32" value="编辑" style="text;html=1;strokeColor=none;fillColor=none;align=center;verticalAlign=middle;whiteSpace=wrap;rounded=0;" vertex="1" parent="1">
          <mxGeometry x="375" y="265" width="35" height="20" as="geometry" />
        </mxCell>
        <mxCell id="4YPogAI1SWp4Oa0HVR4m-33" value="从【购票设置】进入" style="text;html=1;strokeColor=none;fillColor=none;align=center;verticalAlign=middle;whiteSpace=wrap;rounded=0;" vertex="1" parent="1">
          <mxGeometry x="587.5" y="180" width="110" height="20" as="geometry" />
        </mxCell>
        <mxCell id="4YPogAI1SWp4Oa0HVR4m-34" value="开关：false" style="text;html=1;strokeColor=none;fillColor=none;align=center;verticalAlign=middle;whiteSpace=wrap;rounded=0;" vertex="1" parent="1">
          <mxGeometry x="240" y="40" width="70" height="20" as="geometry" />
        </mxCell>
        <mxCell id="4YPogAI1SWp4Oa0HVR4m-35" value="开关：true" style="text;html=1;strokeColor=none;fillColor=none;align=center;verticalAlign=middle;whiteSpace=wrap;rounded=0;" vertex="1" parent="1">
          <mxGeometry x="430" y="40" width="70" height="20" as="geometry" />
        </mxCell>
      </root>
    </mxGraphModel>
  </diagram>
</mxfile>
